<?xml version="1.0" standalone="no"?>
<!DOCTYPE svg PUBLIC "-//W3C//DTD SVG 20010904//EN"
 "http://www.w3.org/TR/2001/REC-SVG-20010904/DTD/svg10.dtd">
<svg version="1.0" xmlns="http://www.w3.org/2000/svg"
 width="1195.000000pt" height="896.000000pt" viewBox="0 0 1195.000000 896.000000"
 preserveAspectRatio="xMidYMid meet">

<g transform="translate(0.000000,896.000000) scale(0.100000,-0.100000)"
fill="#000000" stroke="none">
<path d="M5808 7123 c-217 -145 -392 -347 -507 -587 -48 -101 -57 -124 -85
-226 -41 -145 -49 -206 -49 -355 1 -215 35 -354 138 -570 50 -105 136 -235
156 -235 5 0 1 17 -9 38 -54 106 -106 315 -124 500 -18 186 8 421 70 632 54
180 156 389 280 570 47 69 93 134 103 145 9 11 40 46 68 78 76 85 74 86 -41
10z"/>
<path d="M6745 7135 c-302 -76 -633 -287 -797 -507 -15 -20 -34 -42 -41 -50
-28 -28 -106 -157 -146 -241 -89 -187 -124 -339 -125 -542 -1 -184 10 -279 51
-422 25 -90 33 -72 33 75 0 186 40 432 92 567 108 284 246 503 451 717 122
128 355 306 490 374 91 47 90 54 -8 29z"/>
<path d="M4998 6948 c-24 -19 -120 -155 -154 -218 -17 -30 -40 -72 -53 -94
-33 -58 -108 -293 -123 -387 -17 -107 -16 -363 1 -454 52 -276 182 -516 396
-731 74 -75 205 -178 213 -169 3 3 -10 22 -30 43 -79 83 -209 281 -264 402
-52 112 -64 143 -82 200 -102 322 -112 654 -32 995 31 131 99 325 142 408 10
20 7 21 -14 5z"/>
<path d="M4208 6395 c-9 -14 -35 -118 -53 -211 -19 -98 -19 -333 0 -429 37
-194 59 -266 118 -396 33 -73 136 -239 166 -270 9 -9 30 -33 46 -55 112 -143
269 -263 489 -372 68 -34 237 -94 245 -87 7 8 -12 26 -42 40 -122 56 -389 282
-489 414 -24 31 -46 58 -49 61 -11 10 -117 165 -139 205 -61 107 -95 180 -134
285 -93 247 -124 402 -144 710 -4 63 -10 110 -14 105z"/>
<path d="M6570 5911 c-19 -11 -48 -31 -63 -45 -16 -15 -51 -38 -78 -51 -35
-18 -59 -41 -85 -79 -32 -49 -36 -62 -37 -128 -2 -76 15 -134 84 -286 16 -35
29 -67 29 -71 0 -8 23 -60 41 -93 5 -10 9 -28 9 -41 0 -13 4 -27 9 -32 5 -6
14 -28 20 -50 7 -22 16 -49 21 -60 13 -32 47 -173 61 -255 7 -41 13 -149 13
-240 -1 -133 -5 -181 -22 -250 -66 -264 -166 -451 -348 -641 -83 -88 -281
-259 -299 -259 -7 0 -61 -37 -90 -62 -11 -9 -82 -48 -157 -87 -75 -38 -143
-73 -150 -77 -7 -5 -33 -16 -58 -25 -25 -10 -76 -29 -115 -44 -413 -158 -846
-234 -1260 -221 -143 4 -156 4 -119 -8 80 -27 241 -40 484 -42 268 -2 437 16
680 71 401 93 781 265 1040 474 195 157 373 374 450 551 11 25 25 54 31 64 34
59 82 241 99 376 13 107 8 352 -10 440 -6 30 -12 64 -13 75 -12 85 -126 396
-192 525 -31 61 -71 145 -98 207 -15 35 -11 97 8 127 31 47 58 54 240 61 94 4
267 11 385 17 118 5 301 13 405 17 105 4 192 9 195 11 9 5 -318 28 -565 40
l-240 12 -37 33 c-20 19 -50 41 -67 49 -43 23 -156 20 -201 -3z"/>
<path d="M3590 5588 c1 -67 69 -280 134 -419 130 -275 339 -509 626 -699 52
-34 104 -66 115 -70 11 -4 63 -28 115 -53 89 -41 207 -80 325 -106 114 -26
375 -40 375 -21 0 6 -9 10 -20 10 -11 0 -53 11 -94 25 -41 14 -79 25 -85 25
-45 0 -365 146 -506 231 -55 33 -109 66 -120 72 -11 7 -40 28 -65 48 -25 20
-52 40 -61 45 -27 15 -137 114 -227 204 -148 149 -333 395 -405 540 -10 19
-22 42 -27 50 -5 8 -22 41 -36 73 -30 64 -44 79 -44 45z"/>
<path d="M3328 4764 c-8 -13 54 -116 160 -267 50 -71 172 -201 242 -258 113
-93 168 -135 190 -148 14 -8 54 -33 90 -55 253 -155 621 -256 931 -256 79 0
307 26 342 39 12 5 46 12 75 16 28 4 52 11 52 16 0 5 10 9 23 10 12 0 37 6 54
12 27 10 -19 12 -240 13 -273 0 -322 5 -542 47 -355 70 -770 273 -1042 512 -6
5 -37 33 -69 60 -70 60 -199 190 -235 236 -14 18 -28 29 -31 23z"/>
<path d="M7508 4032 c-16 -2 -28 -7 -28 -11 0 -4 48 -30 107 -57 200 -91 337
-199 418 -328 55 -89 121 -227 220 -466 120 -287 149 -345 211 -406 29 -30 56
-54 60 -54 25 0 -87 326 -208 605 -158 366 -250 504 -398 603 -104 69 -290
124 -382 114z"/>
<path d="M7231 3820 c9 -14 46 -70 81 -125 205 -314 364 -722 408 -1044 19
-134 33 -95 38 107 6 230 -24 395 -106 572 -72 157 -221 351 -344 446 -87 69
-97 75 -77 44z"/>
<path d="M3463 3626 c45 -45 309 -173 452 -218 222 -72 365 -98 569 -107 246
-11 424 2 626 46 36 8 85 18 110 24 140 29 483 164 588 230 39 24 24 29 -29 9
-67 -27 -339 -93 -464 -114 -55 -9 -121 -21 -146 -26 -44 -9 -134 -18 -364
-39 -167 -15 -511 4 -710 38 -163 28 -284 55 -370 82 -22 7 -42 13 -45 14 -3
1 -12 4 -20 7 -8 4 -24 9 -35 11 -11 3 -51 17 -89 31 -79 30 -93 32 -73 12z"/>
<path d="M7105 3535 c3 -22 14 -99 25 -172 48 -325 46 -618 -6 -903 -24 -130
-75 -325 -96 -363 -5 -10 -8 -23 -6 -29 5 -13 93 122 137 210 46 91 97 251
117 362 20 119 15 395 -11 509 -26 115 -73 248 -122 341 -39 77 -43 81 -38 45z"/>
<path d="M6847 3400 c-3 -8 -11 -46 -17 -85 -33 -207 -127 -505 -225 -707
-124 -259 -245 -434 -494 -712 l-26 -29 52 29 c143 81 372 302 476 459 175
265 258 542 256 848 -1 127 -11 223 -22 197z"/>
<path d="M6458 3233 c-113 -156 -281 -346 -408 -464 -56 -52 -112 -101 -124
-109 -12 -8 -53 -40 -92 -70 -59 -48 -144 -106 -269 -186 -60 -38 -241 -131
-380 -194 -100 -45 -134 -59 -190 -76 -46 -14 -54 -19 -36 -22 63 -10 338 54
476 111 39 16 252 122 290 144 246 145 473 364 637 613 76 116 193 340 187
359 -2 6 -43 -42 -91 -106z"/>
</g>
</svg>
